<?xml version="1.0" standalone="no"?>
<!DOCTYPE svg PUBLIC "-//W3C//DTD SVG 20010904//EN"
 "http://www.w3.org/TR/2001/REC-SVG-20010904/DTD/svg10.dtd">
<svg version="1.0" xmlns="http://www.w3.org/2000/svg"
 width="250.000000pt" height="432.000000pt" viewBox="0 0 250.000000 432.000000"
 preserveAspectRatio="xMidYMid meet">

<g transform="translate(0.000000,432.000000) scale(0.100000,-0.100000)"
fill="#000000" stroke="none">
<path d="M253 4177 l-243 -122 0 -1522 0 -1523 992 -496 993 -496 247 123 248
124 1 1397 c1 769 2 1418 2 1443 0 25 -1 81 -2 125 l-1 80 -75 37 c-58 29 -71
39 -58 45 12 4 6 6 -16 5 -20 -1 -36 4 -39 11 -2 6 -10 12 -18 12 -8 0 -14 5
-14 11 0 6 -6 9 -12 6 -7 -2 -403 191 -880 429 -478 239 -871 434 -875 433 -5
0 -117 -55 -250 -122z m774 -1371 c0 -7 -6 -13 -14 -13 -7 0 -13 8 -13 18 0
11 5 16 13 13 8 -3 14 -11 14 -18z m-1 -84 c3 -15 0 -20 -11 -16 -17 7 -21 48
-3 42 6 -2 13 -14 14 -26z m474 -158 c0 -8 -4 -14 -9 -14 -6 0 -9 9 -8 19 1
22 17 18 17 -5z m-203 -121 c-4 -3 -2 -12 5 -20 8 -11 7 -12 -6 -7 -18 7 -22
34 -4 34 6 0 8 -3 5 -7z m-79 -81 c3 -16 -1 -20 -12 -16 -19 7 -22 48 -3 42 6
-3 13 -14 15 -26z m60 -66 c3 -12 -1 -17 -10 -14 -7 3 -15 13 -16 22 -3 12 1
17 10 14 7 -3 15 -13 16 -22z m-255 -105 c3 -14 1 -18 -9 -14 -8 3 -14 14 -14
25 0 23 16 16 23 -11z m2 -69 c0 -18 -20 -15 -23 4 -3 10 1 15 10 12 7 -3 13
-10 13 -16z m475 -162 c0 -13 -5 -18 -15 -14 -16 7 -19 17 -8 27 12 13 23 7
23 -13z m-146 -45 c-4 -8 -8 -15 -10 -15 -2 0 -4 7 -4 15 0 8 4 15 10 15 5 0
7 -7 4 -15z m-44 -85 c0 -5 -8 -10 -17 -10 -15 0 -16 2 -3 10 19 12 20 12 20
0z m-90 -81 c0 -12 -5 -16 -15 -13 -8 4 -15 15 -15 25 0 12 5 16 15 13 8 -4
15 -15 15 -25z m58 -63 c3 -12 -1 -17 -10 -14 -7 3 -15 13 -16 22 -3 12 1 17
10 14 7 -3 15 -13 16 -22z m-637 -264 c-7 -2 -18 1 -23 6 -8 8 -4 9 13 5 13
-4 18 -8 10 -11z"/>
<path d="M2290 3445 c0 -1 8 -11 18 -22 14 -17 19 -18 30 -7 17 19 16 21 -18
26 -16 3 -30 4 -30 3z"/>
</g>
</svg>
